<svg width="906" height="480" viewBox="0 0 906 480" fill="none" xmlns="http://www.w3.org/2000/svg">
<path d="M754.139 55.589C800.137 62.8727 836.552 86.6941 855.545 113.067C875.081 140.194 868.284 163.029 856.716 196.713C845.147 230.397 795.968 283.248 774.726 304.701C753.485 326.155 699.213 353.848 652.976 361.483C596.601 370.793 648.312 351.141 648.312 351.141L753.761 479.245H489.39C489.39 479.245 452.751 411.907 427.291 395.503C401.831 379.099 355.142 375.246 355.142 375.246H0L86.1839 254.885L582.837 254.62C667.413 236.981 682.092 173.293 676.966 173.411C596.527 173.07 264.123 172.918 177.758 173.198L136.239 116.954C113.404 86.019 93.3583 56.8913 93.3583 55.4834" fill="#006FD3"/>
<path d="M906 427.906H455.47L530.052 290.204L616.838 290.15L489.074 122.006H252.957L331.265 0H615.764L906 427.906Z" fill="black" fill-opacity="0.25"/>
<path d="M284.336 427.906H38.1123L201.905 203.344H442.276L284.336 427.906Z" fill="black" fill-opacity="0.25"/>
</svg>
