<?xml version="1.0" encoding="utf-8"?>
<!-- Generator: Adobe Illustrator 19.0.0, SVG Export Plug-In . SVG Version: 6.00 Build 0)  -->
<svg width="150" height="22" viewBox="0 0 150 22" fill="none" xmlns="http://www.w3.org/2000/svg">
<path d="M149.739 5.69389C150.807 1.86146 148.397 0.783437 146.172 0.394226H144.441L123.495 0.394566C119.834 0.347976 116.931 6.27167 116.931 6.27167H142.665C142.665 6.27167 137.835 13.3793 137.689 13.5835C137.52 13.8209 136.975 14.6784 136.22 14.6974L120.719 14.6865L123.534 10.0395L115.314 10.0444C115.314 10.0444 112.765 14.2302 112.386 15.7935C111.35 20.075 115.375 20.9733 116.32 21.0632C116.478 21.0782 116.641 21.0928 116.809 21.1064H136.109C136.109 21.1064 140.165 20.7597 141.81 18.3794C143.455 15.9987 149.739 5.69389 149.739 5.69389Z" fill="#7e7e7e"/>
<path d="M107.9 0C108.047 0.00255053 108.188 0.00493071 108.324 0.00765128C113.688 0.111883 112.941 4.59826 112.941 4.59826C111.745 14.5336 105.904 14.9487 102.04 15.3991C101.099 15.5089 101.311 16.0743 101.311 16.0743L104.332 20.8672H96.5202C93.9545 15.7961 92.5437 15.7303 90.5451 15.7031C90.4628 15.7021 90.3654 15.6572 90.2874 15.7L78.145 15.7031L81.9294 9.69507H101.033C104.575 8.41249 104.679 5.84717 104.679 5.84717H83.2232L79.5433 0.00781992L107.9 0Z" fill="#7e7e7e"/>
<path d="M65.3645 15.6481C65.3645 15.6481 66.9923 15.6048 67.3055 15.5653C71.2425 15.068 77.1615 13.7783 78.2699 4.5938C78.2699 4.5938 79.0167 0.116598 73.6527 0.0125367C73.5165 0.00981612 73.375 0.00743334 73.2288 0.00488281L44.8719 0.0125367L48.5519 5.83982H70.0073C70.0073 5.83982 69.903 8.39987 66.3618 9.68006H52.3345C52.3345 9.68006 46.1326 12.3835 42.3745 20.8189H50.1936C50.1936 20.8189 52.112 15.6726 57.0902 15.6726" fill="#7e7e7e"/>
<path d="M39.999 0.00513171C41.9557 0.358918 43.5046 1.51599 44.3125 2.79697C45.1436 4.11465 44.8544 5.2238 44.3623 6.8599C43.8703 8.49601 41.7783 11.0631 40.8747 12.1052C39.9712 13.1473 37.6626 14.4924 35.6958 14.8632C33.2978 15.3155 33.3152 15.6599 33.3152 15.6599L36.28 20.574L28.7374 20.5832C28.7374 20.5832 27.1788 17.3125 26.0958 16.5157C25.0128 15.7189 23.0268 15.5317 23.0268 15.5317H7.9201L11.5861 9.68548L32.7123 9.67263C36.3099 8.81581 36.9344 5.72236 36.7163 5.72808C33.2946 5.7115 19.1552 5.70412 15.4814 5.71774L13.7153 2.98578C12.744 1.4832 11.8913 0.0683873 11.8913 0" fill="#7e7e7e"/>
<path d="M36.3778 20.5743H17.4937L20.6198 13.9534L24.2575 13.9508L18.9022 5.86622H9.0053L12.2876 0H24.2125L36.3778 20.5743Z" fill="#147AD6" fill-opacity="0.88"/>
<path d="M10.3205 20.5743H0L6.86543 9.77703H16.9407L10.3205 20.5743Z" fill="#147AD6" fill-opacity="0.88"/>
</svg>

